<svg width="217" height="52" viewBox="0 0 217 52" fill="none" xmlns="http://www.w3.org/2000/svg">
<rect y="26" width="26" height="26" fill="#F6D7A7"/>
<rect width="26" height="26" fill="#87AAAA"/>
<rect x="26" width="26" height="26" fill="#C8E3D4"/>
<path d="M38.727 35.089H37.232L35.633 42.681H37.141C37.6957 42.681 38.207 42.5076 38.675 42.161C39.143 41.8143 39.52 41.3766 39.806 40.848C40.3954 39.7473 40.69 38.651 40.69 37.559C40.69 36.779 40.508 36.1723 40.144 35.739C39.7887 35.3056 39.3164 35.089 38.727 35.089ZM35.659 34.79H38.805C39.6717 34.79 40.3564 35.0456 40.859 35.557C41.3617 36.0596 41.613 36.766 41.613 37.676C41.613 38.2913 41.5047 38.911 41.288 39.535C41.08 40.1503 40.7897 40.718 40.417 41.238C40.0444 41.7493 39.5634 42.1696 38.974 42.499C38.3934 42.8196 37.7607 42.98 37.076 42.98H33.93L33.969 42.746H34.567C34.6797 42.746 34.749 42.681 34.775 42.551C35.815 37.6283 36.335 35.1453 36.335 35.102C36.335 35.05 36.2874 35.024 36.192 35.024H35.62L35.659 34.79Z" fill="white"/>
<path d="M44.486 38.586L42.926 45.996C42.926 46.0827 42.9737 46.126 43.069 46.126H43.641L43.602 46.36H41.21L41.249 46.126H41.847C41.9597 46.126 42.029 46.061 42.055 45.931C43.095 41.0083 43.615 38.5253 43.615 38.482C43.615 38.43 43.5673 38.404 43.472 38.404H42.9L42.939 38.17H45.331L45.292 38.404H44.707C44.5943 38.404 44.5207 38.4647 44.486 38.586Z" fill="white"/>
<path d="M69.58 19.86H67.28L64.82 31.54H67.14C67.9933 31.54 68.78 31.2733 69.5 30.74C70.22 30.2067 70.8 29.5333 71.24 28.72C72.1467 27.0267 72.6 25.34 72.6 23.66C72.6 22.46 72.32 21.5267 71.76 20.86C71.2133 20.1933 70.4867 19.86 69.58 19.86ZM64.86 19.4H69.7C71.0333 19.4 72.0867 19.7933 72.86 20.58C73.6333 21.3533 74.02 22.44 74.02 23.84C74.02 24.7867 73.8533 25.74 73.52 26.7C73.2 27.6467 72.7533 28.52 72.18 29.32C71.6067 30.1067 70.8667 30.7533 69.96 31.26C69.0667 31.7533 68.0933 32 67.04 32H62.2L62.26 31.64H63.18C63.3533 31.64 63.46 31.54 63.5 31.34C65.1 23.7667 65.9 19.9467 65.9 19.88C65.9 19.8 65.8267 19.76 65.68 19.76H64.8L64.86 19.4ZM79.8466 23.12C80.5532 23.12 81.0799 23.2933 81.4266 23.64C81.7866 23.9733 81.9666 24.46 81.9666 25.1C81.9666 25.7267 81.7199 26.2733 81.2266 26.74C80.3866 27.54 79.1399 27.94 77.4866 27.94C76.9932 27.94 76.5666 27.9 76.2066 27.82V27.44C76.6732 27.5067 77.0599 27.54 77.3666 27.54C78.4732 27.54 79.3266 27.26 79.9266 26.7C80.5399 26.14 80.8466 25.5267 80.8466 24.86C80.8466 24.5 80.7466 24.2 80.5466 23.96C80.3599 23.72 80.0399 23.6 79.5866 23.6C79.1466 23.6 78.6932 23.8067 78.2266 24.22C77.7732 24.6333 77.4132 25.1467 77.1466 25.76C76.6132 27.0533 76.3466 28.1733 76.3466 29.12C76.3466 30.88 76.8799 31.76 77.9466 31.76C79.2666 31.76 80.2332 31.04 80.8466 29.6L81.1666 29.68C80.8466 30.4933 80.3799 31.1267 79.7666 31.58C79.1666 32.02 78.4866 32.24 77.7266 32.24C76.9666 32.24 76.3266 31.96 75.8066 31.4C75.2866 30.84 75.0266 30.0867 75.0266 29.14C75.0266 28.1933 75.2066 27.28 75.5666 26.4C75.9266 25.5067 76.4866 24.74 77.2466 24.1C78.0066 23.4467 78.8732 23.12 79.8466 23.12ZM86.7958 23.6C86.2891 23.6 85.8558 23.7467 85.4958 24.04C85.1358 24.3333 84.9558 24.7067 84.9558 25.16C84.9558 25.6133 85.1424 26.0267 85.5158 26.4C85.8891 26.7733 86.2958 27.0867 86.7358 27.34C87.1758 27.58 87.5824 27.9 87.9558 28.3C88.3291 28.7 88.5158 29.1267 88.5158 29.58C88.5158 30.4333 88.1824 31.0933 87.5158 31.56C86.8624 32.0133 86.0691 32.24 85.1358 32.24C84.2024 32.24 83.3824 32.02 82.6758 31.58C82.9024 31.1267 83.1158 30.34 83.3158 29.22L83.6558 29.28C83.5624 29.8267 83.5158 30.26 83.5158 30.58C83.5158 30.8867 83.6624 31.1733 83.9558 31.44C84.2624 31.6933 84.6958 31.82 85.2558 31.82C85.8291 31.82 86.3091 31.6467 86.6958 31.3C87.0958 30.9533 87.2958 30.5 87.2958 29.94C87.2958 29.58 87.1158 29.2333 86.7558 28.9C86.4091 28.5533 86.0224 28.2667 85.5958 28.04C85.1824 27.8133 84.7958 27.4933 84.4358 27.08C84.0891 26.6667 83.9158 26.2133 83.9158 25.72C83.9158 24.9867 84.2024 24.3733 84.7758 23.88C85.3624 23.3733 86.1291 23.12 87.0758 23.12C87.8091 23.12 88.5358 23.3 89.2558 23.66C89.1891 23.8067 89.0758 24.14 88.9158 24.66C88.7691 25.18 88.6558 25.6733 88.5758 26.14L88.2358 26.08C88.3158 25.6533 88.3558 25.2467 88.3558 24.86C88.3558 24.46 88.2224 24.1533 87.9558 23.94C87.7024 23.7133 87.3158 23.6 86.7958 23.6ZM93.4139 21.12C93.2406 20.9467 93.1539 20.7333 93.1539 20.48C93.1539 20.2267 93.2406 20.0133 93.4139 19.84C93.5872 19.6667 93.8006 19.58 94.0539 19.58C94.3072 19.58 94.5206 19.6667 94.6939 19.84C94.8672 20.0133 94.9539 20.2267 94.9539 20.48C94.9539 20.7333 94.8672 20.9467 94.6939 21.12C94.5206 21.2933 94.3072 21.38 94.0539 21.38C93.8006 21.38 93.5872 21.2933 93.4139 21.12ZM91.1539 30.74C91.1539 30.0333 91.6406 27.8 92.6139 24.04L91.3339 24.14L91.3139 23.8C92.2339 23.68 93.0939 23.5133 93.8939 23.3L94.1739 23.5C93.7072 24.8867 93.2672 26.3733 92.8539 27.96C92.4406 29.5467 92.2339 30.5667 92.2339 31.02C92.2339 31.46 92.4006 31.68 92.7339 31.68C92.9872 31.68 93.2606 31.5133 93.5539 31.18C93.8472 30.8333 94.1006 30.3467 94.3139 29.72L94.6339 29.8C94.0606 31.4267 93.3139 32.24 92.3939 32.24C91.5672 32.24 91.1539 31.74 91.1539 30.74ZM97.5013 30.84L100.681 31.56C101.375 31.72 101.868 31.9333 102.161 32.2C102.455 32.48 102.601 32.86 102.601 33.34C102.601 34.1133 102.175 34.84 101.321 35.52C100.481 36.2133 99.5213 36.56 98.4413 36.56C97.3613 36.56 96.4813 36.3133 95.8013 35.82C95.1346 35.3267 94.8012 34.74 94.8012 34.06C94.8012 33.5933 94.9612 33.1467 95.2812 32.72C95.5879 32.2933 96.0479 31.9333 96.6613 31.64L97.0613 31.76C96.6613 31.96 96.3546 32.26 96.1413 32.66C95.9279 33.0733 95.8213 33.5067 95.8213 33.96C95.8213 34.7067 96.0679 35.26 96.5613 35.62C97.0546 35.9933 97.6879 36.18 98.4613 36.18C99.2479 36.18 99.9679 35.9533 100.621 35.5C101.288 35.06 101.621 34.5267 101.621 33.9C101.621 33.2733 101.215 32.8667 100.401 32.68L96.9613 31.92C96.5746 31.84 96.2746 31.66 96.0613 31.38C95.8479 31.1 95.7413 30.76 95.7413 30.36C95.7413 29.96 95.9079 29.5933 96.2413 29.26C96.5746 28.9267 97.0346 28.76 97.6213 28.76H99.6413L99.5813 29.04H97.6213C97.3413 29.04 97.1146 29.1267 96.9413 29.3C96.7813 29.4733 96.7013 29.68 96.7013 29.92C96.7013 30.4133 96.9679 30.72 97.5013 30.84ZM100.861 23.4L100.841 23.12C101.215 23.12 101.528 23.0333 101.781 22.86C102.035 22.6733 102.161 22.4333 102.161 22.14C102.161 21.8467 101.948 21.5667 101.521 21.3C101.735 20.8467 101.988 20.62 102.281 20.62C102.588 20.62 102.815 20.7067 102.961 20.88C103.121 21.0533 103.201 21.2733 103.201 21.54C103.201 22.0067 102.988 22.4333 102.561 22.82C102.148 23.2067 101.581 23.4 100.861 23.4ZM97.2013 26.86C97.2013 25.8733 97.5479 25.0067 98.2413 24.26C98.9479 23.5 99.8146 23.12 100.841 23.12C101.561 23.12 102.128 23.3133 102.541 23.7C102.968 24.0733 103.181 24.6067 103.181 25.3C103.181 26.42 102.821 27.3267 102.101 28.02C101.381 28.7 100.541 29.04 99.5813 29.04C98.8479 29.04 98.2679 28.8533 97.8413 28.48C97.4146 28.0933 97.2013 27.5533 97.2013 26.86ZM100.821 23.5C100.088 23.5 99.4879 23.9067 99.0213 24.72C98.5546 25.52 98.3213 26.2333 98.3213 26.86C98.3213 27.4867 98.4346 27.9467 98.6613 28.24C98.9013 28.52 99.2146 28.66 99.6013 28.66C100.188 28.66 100.748 28.3267 101.281 27.66C101.815 26.9933 102.081 26.1533 102.081 25.14C102.081 24.6333 101.961 24.2333 101.721 23.94C101.495 23.6467 101.195 23.5 100.821 23.5ZM112.757 24.94C112.757 25.5133 112.43 26.5667 111.777 28.1C111.137 29.6333 110.817 30.6133 110.817 31.04C110.817 31.4667 110.984 31.68 111.317 31.68C111.57 31.68 111.844 31.5133 112.137 31.18C112.43 30.8333 112.684 30.3467 112.897 29.72L113.217 29.8C112.644 31.4267 111.897 32.24 110.977 32.24C110.15 32.24 109.737 31.7867 109.737 30.88C109.737 30.4933 110.037 29.5333 110.637 28C111.25 26.4667 111.557 25.48 111.557 25.04C111.557 24.2 111.25 23.78 110.637 23.78C109.97 23.78 109.25 24.32 108.477 25.4C107.584 26.6933 106.79 28.8933 106.097 32L104.697 32.12L106.657 24.04L105.377 24.14L105.357 23.8C106.277 23.68 107.137 23.5133 107.937 23.3L108.217 23.5C107.577 24.9667 107.017 26.6533 106.537 28.56H106.697L107.017 27.68C107.737 25.6667 108.517 24.36 109.357 23.76C109.757 23.4933 110.084 23.32 110.337 23.24C110.604 23.16 110.93 23.12 111.317 23.12C111.717 23.12 112.057 23.28 112.337 23.6C112.617 23.92 112.757 24.3667 112.757 24.94ZM125.815 31.02C125.815 31.46 125.982 31.68 126.315 31.68C126.569 31.68 126.842 31.5133 127.135 31.18C127.429 30.8333 127.682 30.3467 127.895 29.72L128.215 29.8C127.642 31.4267 126.895 32.24 125.975 32.24C125.149 32.24 124.735 31.72 124.735 30.68C124.735 29.6267 125.609 25.9333 127.355 19.6L126.075 19.7L126.055 19.36C126.975 19.24 127.835 19.0733 128.635 18.86L128.915 19.06C128.355 20.7 127.695 22.9267 126.935 25.74C126.189 28.54 125.815 30.3 125.815 31.02ZM124.935 29.78H124.735C123.909 31.42 122.949 32.24 121.855 32.24C121.229 32.24 120.702 31.9667 120.275 31.42C119.862 30.86 119.655 30.18 119.655 29.38C119.655 28.5667 119.762 27.8133 119.975 27.12C120.189 26.4267 120.489 25.78 120.875 25.18C121.262 24.5667 121.775 24.0733 122.415 23.7C123.055 23.3133 123.709 23.12 124.375 23.12C125.655 23.12 126.562 23.68 127.095 24.8L126.815 25.16C126.189 24.12 125.409 23.6 124.475 23.6C123.902 23.6 123.375 23.8067 122.895 24.22C122.429 24.6333 122.062 25.1533 121.795 25.78C121.249 27.06 120.975 28.2667 120.975 29.4C120.975 30.1467 121.095 30.7067 121.335 31.08C121.589 31.4533 121.922 31.64 122.335 31.64C122.909 31.64 123.495 31.16 124.095 30.2C124.695 29.2267 125.229 27.84 125.695 26.04L124.935 29.78ZM134.475 23.12C135.182 23.12 135.709 23.2933 136.055 23.64C136.415 23.9733 136.595 24.46 136.595 25.1C136.595 25.7267 136.349 26.2733 135.855 26.74C135.015 27.54 133.769 27.94 132.115 27.94C131.622 27.94 131.195 27.9 130.835 27.82V27.44C131.302 27.5067 131.689 27.54 131.995 27.54C133.102 27.54 133.955 27.26 134.555 26.7C135.169 26.14 135.475 25.5267 135.475 24.86C135.475 24.5 135.375 24.2 135.175 23.96C134.989 23.72 134.669 23.6 134.215 23.6C133.775 23.6 133.322 23.8067 132.855 24.22C132.402 24.6333 132.042 25.1467 131.775 25.76C131.242 27.0533 130.975 28.1733 130.975 29.12C130.975 30.88 131.509 31.76 132.575 31.76C133.895 31.76 134.862 31.04 135.475 29.6L135.795 29.68C135.475 30.4933 135.009 31.1267 134.395 31.58C133.795 32.02 133.115 32.24 132.355 32.24C131.595 32.24 130.955 31.96 130.435 31.4C129.915 30.84 129.655 30.0867 129.655 29.14C129.655 28.1933 129.835 27.28 130.195 26.4C130.555 25.5067 131.115 24.74 131.875 24.1C132.635 23.4467 133.502 23.12 134.475 23.12ZM147.045 20.04L144.645 31.44C144.645 31.5733 144.718 31.64 144.865 31.64H145.745L145.685 32H142.005L142.065 31.64H142.985C143.158 31.64 143.265 31.54 143.305 31.34C144.905 23.7667 145.705 19.9467 145.705 19.88C145.705 19.8 145.631 19.76 145.485 19.76H144.605L144.665 19.4H148.345L148.285 19.76H147.385C147.211 19.76 147.098 19.8533 147.045 20.04ZM156.898 24.94C156.898 25.5133 156.571 26.5667 155.918 28.1C155.278 29.6333 154.958 30.6133 154.958 31.04C154.958 31.4667 155.124 31.68 155.458 31.68C155.711 31.68 155.984 31.5133 156.278 31.18C156.571 30.8333 156.824 30.3467 157.038 29.72L157.358 29.8C156.784 31.4267 156.038 32.24 155.118 32.24C154.291 32.24 153.878 31.7867 153.878 30.88C153.878 30.4933 154.178 29.5333 154.778 28C155.391 26.4667 155.698 25.48 155.698 25.04C155.698 24.2 155.391 23.78 154.778 23.78C154.111 23.78 153.391 24.32 152.618 25.4C151.724 26.6933 150.931 28.8933 150.238 32L148.838 32.12L150.798 24.04L149.518 24.14L149.498 23.8C150.418 23.68 151.278 23.5133 152.078 23.3L152.358 23.5C151.718 24.9667 151.158 26.6533 150.678 28.56H150.838L151.158 27.68C151.878 25.6667 152.658 24.36 153.498 23.76C153.898 23.4933 154.224 23.32 154.478 23.24C154.744 23.16 155.071 23.12 155.458 23.12C155.858 23.12 156.198 23.28 156.478 23.6C156.758 23.92 156.898 24.3667 156.898 24.94ZM159.336 24.08L159.436 23.7H163.876L163.776 24.08H159.336ZM162.516 21.24L162.796 21.44C162.489 22.3733 162.076 23.84 161.556 25.84C161.049 27.84 160.743 29.1333 160.636 29.72C160.529 30.2933 160.476 30.7267 160.476 31.02C160.476 31.46 160.643 31.68 160.976 31.68C161.229 31.68 161.503 31.5133 161.796 31.18C162.089 30.8333 162.343 30.3467 162.556 29.72L162.876 29.8C162.303 31.4267 161.556 32.24 160.636 32.24C159.809 32.24 159.396 31.74 159.396 30.74C159.396 29.9133 159.889 27.6067 160.876 23.82L159.436 23.7C160.169 23.7 160.763 23.5267 161.216 23.18C161.669 22.82 162.103 22.1733 162.516 21.24ZM169.143 23.12C169.85 23.12 170.377 23.2933 170.723 23.64C171.083 23.9733 171.263 24.46 171.263 25.1C171.263 25.7267 171.017 26.2733 170.523 26.74C169.683 27.54 168.437 27.94 166.783 27.94C166.29 27.94 165.863 27.9 165.503 27.82V27.44C165.97 27.5067 166.357 27.54 166.663 27.54C167.77 27.54 168.623 27.26 169.223 26.7C169.837 26.14 170.143 25.5267 170.143 24.86C170.143 24.5 170.043 24.2 169.843 23.96C169.657 23.72 169.337 23.6 168.883 23.6C168.443 23.6 167.99 23.8067 167.523 24.22C167.07 24.6333 166.71 25.1467 166.443 25.76C165.91 27.0533 165.643 28.1733 165.643 29.12C165.643 30.88 166.177 31.76 167.243 31.76C168.563 31.76 169.53 31.04 170.143 29.6L170.463 29.68C170.143 30.4933 169.677 31.1267 169.063 31.58C168.463 32.02 167.783 32.24 167.023 32.24C166.263 32.24 165.623 31.96 165.103 31.4C164.583 30.84 164.323 30.0867 164.323 29.14C164.323 28.1933 164.503 27.28 164.863 26.4C165.223 25.5067 165.783 24.74 166.543 24.1C167.303 23.4467 168.17 23.12 169.143 23.12ZM175.613 23.3L175.893 23.5C175.253 24.9667 174.693 26.6533 174.213 28.56H174.373L174.693 27.68C175.319 25.9733 175.939 24.7867 176.553 24.12C177.166 23.4533 177.699 23.12 178.153 23.12C178.606 23.12 178.939 23.2667 179.153 23.56C179.379 23.8533 179.493 24.2333 179.493 24.7C179.493 25.1667 179.406 25.5733 179.233 25.92C179.059 26.2667 178.806 26.44 178.473 26.44C178.153 26.44 177.886 26.3333 177.673 26.12C177.806 25.9467 177.933 25.6933 178.053 25.36C178.173 25.0267 178.233 24.7333 178.233 24.48C178.233 24.0933 178.073 23.9 177.753 23.9C177.419 23.9 177.006 24.2267 176.513 24.88C175.433 26.2933 174.519 28.6667 173.773 32L172.373 32.12L174.333 24.04L173.053 24.14L173.033 23.8C173.953 23.68 174.813 23.5133 175.613 23.3ZM182.555 21.12C182.381 20.9467 182.295 20.7333 182.295 20.48C182.295 20.2267 182.381 20.0133 182.555 19.84C182.728 19.6667 182.941 19.58 183.195 19.58C183.448 19.58 183.661 19.6667 183.835 19.84C184.008 20.0133 184.095 20.2267 184.095 20.48C184.095 20.7333 184.008 20.9467 183.835 21.12C183.661 21.2933 183.448 21.38 183.195 21.38C182.941 21.38 182.728 21.2933 182.555 21.12ZM180.295 30.74C180.295 30.0333 180.781 27.8 181.755 24.04L180.475 24.14L180.455 23.8C181.375 23.68 182.235 23.5133 183.035 23.3L183.315 23.5C182.848 24.8867 182.408 26.3733 181.995 27.96C181.581 29.5467 181.375 30.5667 181.375 31.02C181.375 31.46 181.541 31.68 181.875 31.68C182.128 31.68 182.401 31.5133 182.695 31.18C182.988 30.8333 183.241 30.3467 183.455 29.72L183.775 29.8C183.201 31.4267 182.455 32.24 181.535 32.24C180.708 32.24 180.295 31.74 180.295 30.74ZM185.222 29.1C185.222 27.7267 185.622 26.4133 186.422 25.16C186.809 24.56 187.315 24.0733 187.942 23.7C188.569 23.3133 189.282 23.12 190.082 23.12C190.895 23.12 191.555 23.3933 192.062 23.94C192.569 24.4867 192.822 25.2333 192.822 26.18C192.822 27.1267 192.649 28.0467 192.302 28.94C191.955 29.8333 191.409 30.6067 190.662 31.26C189.915 31.9133 189.075 32.24 188.142 32.24C187.209 32.24 186.489 31.9667 185.982 31.42C185.475 30.8733 185.222 30.1 185.222 29.1ZM189.922 23.56C189.202 23.56 188.562 23.92 188.002 24.64C187.455 25.36 187.062 26.1467 186.822 27C186.595 27.8533 186.482 28.6533 186.482 29.4C186.482 30.1333 186.629 30.72 186.922 31.16C187.229 31.5867 187.642 31.8 188.162 31.8C188.695 31.8 189.189 31.5867 189.642 31.16C190.109 30.7333 190.475 30.2067 190.742 29.58C191.289 28.3 191.562 27.1933 191.562 26.26C191.562 25.3133 191.415 24.6267 191.122 24.2C190.829 23.7733 190.429 23.56 189.922 23.56ZM197.761 23.3L198.041 23.5C197.401 24.9667 196.841 26.6533 196.361 28.56H196.521L196.841 27.68C197.468 25.9733 198.088 24.7867 198.701 24.12C199.314 23.4533 199.848 23.12 200.301 23.12C200.754 23.12 201.088 23.2667 201.301 23.56C201.528 23.8533 201.641 24.2333 201.641 24.7C201.641 25.1667 201.554 25.5733 201.381 25.92C201.208 26.2667 200.954 26.44 200.621 26.44C200.301 26.44 200.034 26.3333 199.821 26.12C199.954 25.9467 200.081 25.6933 200.201 25.36C200.321 25.0267 200.381 24.7333 200.381 24.48C200.381 24.0933 200.221 23.9 199.901 23.9C199.568 23.9 199.154 24.2267 198.661 24.88C197.581 26.2933 196.668 28.6667 195.921 32L194.521 32.12L196.481 24.04L195.201 24.14L195.181 23.8C196.101 23.68 196.961 23.5133 197.761 23.3ZM206.663 23.12C207.37 23.12 207.896 23.2933 208.243 23.64C208.603 23.9733 208.783 24.46 208.783 25.1C208.783 25.7267 208.536 26.2733 208.043 26.74C207.203 27.54 205.956 27.94 204.303 27.94C203.81 27.94 203.383 27.9 203.023 27.82V27.44C203.49 27.5067 203.876 27.54 204.183 27.54C205.29 27.54 206.143 27.26 206.743 26.7C207.356 26.14 207.663 25.5267 207.663 24.86C207.663 24.5 207.563 24.2 207.363 23.96C207.176 23.72 206.856 23.6 206.403 23.6C205.963 23.6 205.51 23.8067 205.043 24.22C204.59 24.6333 204.23 25.1467 203.963 25.76C203.43 27.0533 203.163 28.1733 203.163 29.12C203.163 30.88 203.696 31.76 204.763 31.76C206.083 31.76 207.05 31.04 207.663 29.6L207.983 29.68C207.663 30.4933 207.196 31.1267 206.583 31.58C205.983 32.02 205.303 32.24 204.543 32.24C203.783 32.24 203.143 31.96 202.623 31.4C202.103 30.84 201.843 30.0867 201.843 29.14C201.843 28.1933 202.023 27.28 202.383 26.4C202.743 25.5067 203.303 24.74 204.063 24.1C204.823 23.4467 205.69 23.12 206.663 23.12ZM213.612 23.6C213.106 23.6 212.672 23.7467 212.312 24.04C211.952 24.3333 211.772 24.7067 211.772 25.16C211.772 25.6133 211.959 26.0267 212.332 26.4C212.706 26.7733 213.112 27.0867 213.552 27.34C213.992 27.58 214.399 27.9 214.772 28.3C215.146 28.7 215.332 29.1267 215.332 29.58C215.332 30.4333 214.999 31.0933 214.332 31.56C213.679 32.0133 212.886 32.24 211.952 32.24C211.019 32.24 210.199 32.02 209.492 31.58C209.719 31.1267 209.932 30.34 210.132 29.22L210.472 29.28C210.379 29.8267 210.332 30.26 210.332 30.58C210.332 30.8867 210.479 31.1733 210.772 31.44C211.079 31.6933 211.512 31.82 212.072 31.82C212.646 31.82 213.126 31.6467 213.512 31.3C213.912 30.9533 214.112 30.5 214.112 29.94C214.112 29.58 213.932 29.2333 213.572 28.9C213.226 28.5533 212.839 28.2667 212.412 28.04C211.999 27.8133 211.612 27.4933 211.252 27.08C210.906 26.6667 210.732 26.2133 210.732 25.72C210.732 24.9867 211.019 24.3733 211.592 23.88C212.179 23.3733 212.946 23.12 213.892 23.12C214.626 23.12 215.352 23.3 216.072 23.66C216.006 23.8067 215.892 24.14 215.732 24.66C215.586 25.18 215.472 25.6733 215.392 26.14L215.052 26.08C215.132 25.6533 215.172 25.2467 215.172 24.86C215.172 24.46 215.039 24.1533 214.772 23.94C214.519 23.7133 214.132 23.6 213.612 23.6Z" fill="white"/>
</svg>
